<svg xmlns="http://www.w3.org/2000/svg" viewBox="0 0 512 512">
  <path d="M256 0L230 26L204 0L178 26L152 0L126 26L100 0L74 26L48 0L22 26L0 52L26 78L0 104L26 130L0 156L26 182L52 156L78 182L104 156L130 182L156 156L182 182L208 156L234 182L260 156L286 182L312 156L338 182L364 156L390 182L416 156L442 182L468 156L494 182L512 156L486 130L512 104L486 78L512 52L486 26L460 0L434 26L408 0L382 26L356 0L330 26L304 0L278 26L256 0Z" fill="#ffffff"/>
  
  <ellipse cx="128" cy="120" rx="80" ry="60" fill="transparent" stroke="#ffffff" stroke-width="8"/>
  <ellipse cx="384" cy="120" rx="80" ry="60" fill="transparent" stroke="#ffffff" stroke-width="8"/>
  <ellipse cx="256" cy="180" rx="100" ry="80" fill="transparent" stroke="#ffffff" stroke-width="8"/>
  
  <path d="M180 280C180 320 200 360 240 380L240 420C240 460 220 500 180 520C140 500 120 460 120 420L120 380C160 360 180 320 180 280Z" fill="#ffffff"/>
  <path d="M332 280C332 320 312 360 272 380L272 420C272 460 292 500 332 520C372 500 392 460 392 420L392 380C352 360 332 320 332 280Z" fill="#ffffff"/>
  
  <rect x="240" y="420" width="32" height="92" fill="#ffffff"/>
</svg>