<svg version="1.1" id="Icon_Set" xmlns="http://www.w3.org/2000/svg" x="0" y="0" viewBox="0 0 512 512" style="enable-background:new 0 0 512 512" xml:space="preserve"><style>.st0{fill:#fff}.st3{fill:#463218}.st6{fill:#e56823}.st7{fill:#fe8e46}</style><g id="CARNATION"><path d="M259.1 295.7c-23.7 0-42.9-19.2-42.9-42.9v-68.7H302v68.7c0 23.7-19.2 42.9-42.9 42.9z" style="fill:#fefe71"/><path d="M245.4 241.8V184h-29.3v68.7c0 23.7 19.2 42.9 42.9 42.9 11 0 21.1-4.2 28.7-11-23.4-.2-42.3-19.3-42.3-42.8z" style="fill:#d6cd1e"/><path class="st3" d="M259.1 302.7c-27.5 0-49.9-22.4-49.9-49.9v-68.7c0-3.9 3.1-7 7-7H302c3.9 0 7 3.1 7 7v68.7c0 27.5-22.4 49.9-49.9 49.9zm-35.9-111.6v61.7c0 19.8 16.1 35.9 35.9 35.9s35.9-16.1 35.9-35.9v-61.7h-71.8z"/><path class="st6" d="m259.1 182.2 64.1-29.2 11.5 31.1-41.7 11.7-33.9 33.1z"/><path class="st3" d="M259.1 235.9c-.9 0-1.8-.2-2.7-.5-2.6-1.1-4.3-3.6-4.3-6.5v-46.7c0-2.7 1.6-5.2 4.1-6.4l64.1-29.2c1.8-.8 3.8-.8 5.6-.1 1.8.7 3.2 2.2 3.9 4l11.5 31.1c.7 1.8.6 3.9-.3 5.6-.9 1.7-2.5 3-4.3 3.6l-40 11.2-32.7 31.9c-1.3 1.4-3.1 2-4.9 2zm7-49.2v25.6l22-21.6c.8-.8 1.9-1.4 3-1.7l34.4-9.6-6.2-16.9-53.2 24.2z"/><path class="st7" d="m259.1 228.9 33.9-33.1 102.7-31.1 20.8 64z"/><path class="st6" d="m281.5 207-22.4 21.9 157.4-.2-7.1-21.9z"/><path class="st6" d="m156.5 182.3 38.6-43.1 64 42.9.1 46.8z"/><path class="st3" d="M259.1 235.9c-2.8 0-5.4-1.7-6.5-4.4-1.1-2.6-.5-5.7 1.6-7.7l33.9-33.2c.8-.8 1.8-1.4 2.9-1.7l102.7-31c3.6-1.1 7.5.9 8.7 4.5l20.7 63.9c.7 2.1.3 4.5-1 6.3a7.01 7.01 0 0 1-5.7 2.9l-157.3.4zm37.6-33.9-20.4 20 130.5-.2-15.7-48.3-94.4 28.5z"/><path class="st3" d="M259.2 235.9c-1 0-2-.2-2.9-.6l-102.7-46.5c-2-.9-3.5-2.8-4-4.9-.5-2.2.1-4.5 1.6-6.1l38.6-43.1c2.3-2.6 6.2-3.1 9.1-1.1l64 42.9c1.9 1.3 3.1 3.5 3.1 5.8l.1 46.7c0 2.4-1.2 4.6-3.2 5.9-1.1.6-2.4 1-3.7 1zm-91.1-56 84.1 38.1-.1-32.1-55.9-37.4-28.1 31.4zM259.1 379.8c-3.9 0-7-3.1-7-7v-77.1c0-3.9 3.1-7 7-7s7 3.1 7 7v77.1c0 3.8-3.1 7-7 7z"/><path class="st3" d="M259.1 353c-1.5 0-3-.5-4.2-1.4-3.1-2.3-3.7-6.7-1.3-9.8 1.3-1.7 32.8-42.5 81.2-42.5 3.9 0 7 3.1 7 7s-3.1 7-7 7c-41.3 0-69.8 36.6-70 37-1.5 1.8-3.6 2.7-5.7 2.7z"/><path class="st3" d="M259.1 374c-2.7 0-5.3-1.6-6.5-4.3-3.3-8-11.2-17.6-22.9-27.9-9.2-8.1-17.4-13.6-17.5-13.7-3.2-2.2-4.1-6.5-1.9-9.7 2.2-3.2 6.5-4.1 9.7-1.9 1.5 1 35.6 24.2 45.5 47.8 1.5 3.6-.2 7.7-3.8 9.2-.8.3-1.7.5-2.6.5z"/><path class="st7" d="m266.4 228.7-137-60.4-33.9 60.4z"/><path class="st6" d="m109.1 204.4-13.6 24.3h170.9l-55.2-24.3z"/><path class="st3" d="M266.4 235.7H95.5c-2.5 0-4.8-1.3-6-3.5-1.3-2.1-1.3-4.8-.1-7l33.8-60.3c1.8-3.1 5.6-4.4 8.9-3l137.1 60.3c3 1.3 4.7 4.6 4 7.8-.6 3.3-3.5 5.7-6.8 5.7zm-158.9-14h125.7l-100.8-44.4-24.9 44.4z"/><path transform="matrix(.0076 -1 1 .0076 142.924 552.61)" class="st0" d="M343.7 186.7H356v35.1h-12.3z"/><path transform="matrix(.0076 -1 1 .0076 177.212 587.646)" class="st0" d="M378.5 197.9h12.3v13.4h-12.3z"/></g></svg>
