<svg xmlns="http://www.w3.org/2000/svg" viewBox="0 0 32 32"><defs><style>.cls-1{fill:#231f20}</style></defs><g id="computer"><path class="cls-1" d="M27.14 3H4.86A2.86 2.86 0 0 0 2 5.86V8a1 1 0 0 0 2 0V5.86A.87.87 0 0 1 4.86 5h22.28a.87.87 0 0 1 .86.86v15.28a.87.87 0 0 1-.86.86H4.86a.87.87 0 0 1-.86-.86V20h21a1 1 0 0 0 0-2H4v-6a1 1 0 0 0-2 0v9.14A2.86 2.86 0 0 0 4.86 24h7.22a8.7 8.7 0 0 1-.08 1.84 8.53 8.53 0 0 1-.63 2.16H10a1 1 0 0 0 0 2h12a1 1 0 0 0 0-2h-1.37a8.53 8.53 0 0 1-.63-2.16 8.7 8.7 0 0 1-.08-1.84h7.22A2.86 2.86 0 0 0 30 21.14V5.86A2.86 2.86 0 0 0 27.14 3zM18 26.16a10.57 10.57 0 0 0 .48 1.84h-5a10.57 10.57 0 0 0 .52-1.84 11.19 11.19 0 0 0 .11-2.16h3.78a11.19 11.19 0 0 0 .11 2.16z"/><path class="cls-1" d="M11.25 15.66A1 1 0 0 0 12 16a1 1 0 0 0 .66-.25l8-7a1 1 0 1 0-1.32-1.5l-8 7a1 1 0 0 0-.09 1.41zM13 8a1 1 0 0 0-1-1 1 1 0 1 0 1 1zM20 14a1 1 0 1 0 1 1 1 1 0 0 0-1-1z"/></g></svg>
